<svg width="174" height="63" viewBox="0 0 174 63" fill="none" xmlns="http://www.w3.org/2000/svg">
<path d="M84.7166 14.2716V31.7855H81.3106V30.3221C80.4268 31.4236 79.1467 31.9743 77.4703 31.9743C76.3122 31.9743 75.2606 31.7068 74.3158 31.1718C73.3862 30.6368 72.6547 29.8736 72.1214 28.8823C71.588 27.8909 71.3213 26.7422 71.3213 25.4361C71.3213 24.1301 71.588 22.9814 72.1214 21.99C72.6547 20.9986 73.3862 20.2355 74.3158 19.7004C75.2606 19.1654 76.3122 18.8979 77.4703 18.8979C79.04 18.8979 80.2668 19.4093 81.1506 20.4322V14.2716H84.7166ZM78.0875 28.9531C78.9867 28.9531 79.7334 28.6384 80.3277 28.0089C80.922 27.3638 81.2192 26.5062 81.2192 25.4361C81.2192 24.3661 80.922 23.5164 80.3277 22.8869C79.7334 22.2418 78.9867 21.9192 78.0875 21.9192C77.1732 21.9192 76.4188 22.2418 75.8245 22.8869C75.2302 23.5164 74.933 24.3661 74.933 25.4361C74.933 26.5062 75.2302 27.3638 75.8245 28.0089C76.4188 28.6384 77.1732 28.9531 78.0875 28.9531Z" fill="#18DBFF"/>
<path d="M100.064 25.4833C100.064 25.5305 100.041 25.861 99.9952 26.4747H90.6916C90.8592 27.2615 91.2554 27.883 91.8802 28.3394C92.505 28.7957 93.2822 29.0239 94.2118 29.0239C94.8519 29.0239 95.4158 28.9295 95.9034 28.7406C96.4063 28.5361 96.8711 28.2214 97.2978 27.7965L99.1951 29.9208C98.0369 31.2898 96.3453 31.9743 94.1204 31.9743C92.7336 31.9743 91.5069 31.699 90.4401 31.1482C89.3734 30.5817 88.5504 29.8028 87.9714 28.8115C87.3923 27.8201 87.1027 26.695 87.1027 25.4361C87.1027 24.193 87.3846 23.0758 87.9485 22.0844C88.5276 21.0773 89.3124 20.2984 90.303 19.7477C91.3088 19.1812 92.4288 18.8979 93.6632 18.8979C94.8671 18.8979 95.9567 19.1654 96.9321 19.7004C97.9074 20.2355 98.6693 21.0065 99.218 22.0136C99.7818 23.005 100.064 24.1615 100.064 25.4833ZM93.6861 21.6832C92.8784 21.6832 92.2003 21.9192 91.6516 22.3913C91.103 22.8633 90.7678 23.5085 90.6458 24.3268H96.7035C96.5816 23.5242 96.2463 22.8869 95.6977 22.4149C95.1491 21.9271 94.4785 21.6832 93.6861 21.6832Z" fill="#18DBFF"/>
<path d="M108.381 31.9743C107.071 31.9743 105.89 31.699 104.838 31.1482C103.802 30.5817 102.986 29.8028 102.392 28.8115C101.813 27.8201 101.523 26.695 101.523 25.4361C101.523 24.1773 101.813 23.0522 102.392 22.0608C102.986 21.0695 103.802 20.2984 104.838 19.7477C105.89 19.1812 107.071 18.8979 108.381 18.8979C109.677 18.8979 110.804 19.1812 111.764 19.7477C112.74 20.2984 113.448 21.0931 113.89 22.1316L111.124 23.6659C110.484 22.5014 109.562 21.9192 108.358 21.9192C107.429 21.9192 106.659 22.2339 106.05 22.8633C105.44 23.4928 105.135 24.3504 105.135 25.4361C105.135 26.5219 105.44 27.3795 106.05 28.0089C106.659 28.6384 107.429 28.9531 108.358 28.9531C109.577 28.9531 110.499 28.3709 111.124 27.2064L113.89 28.7642C113.448 29.7713 112.74 30.5581 111.764 31.1246C110.804 31.6911 109.677 31.9743 108.381 31.9743Z" fill="#18DBFF"/>
<path d="M121.639 31.9743C120.344 31.9743 119.178 31.699 118.142 31.1482C117.121 30.5817 116.32 29.8028 115.741 28.8115C115.162 27.8201 114.873 26.695 114.873 25.4361C114.873 24.1773 115.162 23.0522 115.741 22.0608C116.32 21.0695 117.121 20.2984 118.142 19.7477C119.178 19.1812 120.344 18.8979 121.639 18.8979C122.934 18.8979 124.093 19.1812 125.114 19.7477C126.135 20.2984 126.935 21.0695 127.514 22.0608C128.093 23.0522 128.382 24.1773 128.382 25.4361C128.382 26.695 128.093 27.8201 127.514 28.8115C126.935 29.8028 126.135 30.5817 125.114 31.1482C124.093 31.699 122.934 31.9743 121.639 31.9743ZM121.639 28.9531C122.553 28.9531 123.3 28.6384 123.879 28.0089C124.474 27.3638 124.771 26.5062 124.771 25.4361C124.771 24.3661 124.474 23.5164 123.879 22.8869C123.3 22.2418 122.553 21.9192 121.639 21.9192C120.725 21.9192 119.97 22.2418 119.376 22.8869C118.782 23.5164 118.484 24.3661 118.484 25.4361C118.484 26.5062 118.782 27.3638 119.376 28.0089C119.97 28.6384 120.725 28.9531 121.639 28.9531Z" fill="#18DBFF"/>
<path d="M143.293 14.2716V31.7855H139.887V30.3221C139.003 31.4236 137.723 31.9743 136.046 31.9743C134.888 31.9743 133.837 31.7068 132.892 31.1718C131.962 30.6368 131.231 29.8736 130.697 28.8823C130.164 27.8909 129.897 26.7422 129.897 25.4361C129.897 24.1301 130.164 22.9814 130.697 21.99C131.231 20.9986 131.962 20.2355 132.892 19.7004C133.837 19.1654 134.888 18.8979 136.046 18.8979C137.616 18.8979 138.843 19.4093 139.727 20.4322V14.2716H143.293ZM136.664 28.9531C137.563 28.9531 138.309 28.6384 138.904 28.0089C139.498 27.3638 139.795 26.5062 139.795 25.4361C139.795 24.3661 139.498 23.5164 138.904 22.8869C138.309 22.2418 137.563 21.9192 136.664 21.9192C135.749 21.9192 134.995 22.2418 134.401 22.8869C133.806 23.5164 133.509 24.3661 133.509 25.4361C133.509 26.5062 133.806 27.3638 134.401 28.0089C134.995 28.6384 135.749 28.9531 136.664 28.9531Z" fill="#18DBFF"/>
<path d="M158.64 25.4833C158.64 25.5305 158.617 25.861 158.571 26.4747H149.268C149.435 27.2615 149.831 27.883 150.456 28.3394C151.081 28.7957 151.858 29.0239 152.788 29.0239C153.428 29.0239 153.992 28.9295 154.479 28.7406C154.982 28.5361 155.447 28.2214 155.874 27.7965L157.771 29.9208C156.613 31.2898 154.921 31.9743 152.696 31.9743C151.31 31.9743 150.083 31.699 149.016 31.1482C147.949 30.5817 147.126 29.8028 146.547 28.8115C145.968 27.8201 145.679 26.695 145.679 25.4361C145.679 24.193 145.961 23.0758 146.525 22.0844C147.104 21.0773 147.888 20.2984 148.879 19.7477C149.885 19.1812 151.005 18.8979 152.239 18.8979C153.443 18.8979 154.533 19.1654 155.508 19.7004C156.483 20.2355 157.245 21.0065 157.794 22.0136C158.358 23.005 158.64 24.1615 158.64 25.4833ZM152.262 21.6832C151.454 21.6832 150.776 21.9192 150.228 22.3913C149.679 22.8633 149.344 23.5085 149.222 24.3268H155.28C155.158 23.5242 154.822 22.8869 154.274 22.4149C153.725 21.9271 153.055 21.6832 152.262 21.6832Z" fill="#18DBFF"/>
<path d="M173.875 14.2716V31.7855H170.469V30.3221C169.585 31.4236 168.305 31.9743 166.629 31.9743C165.471 31.9743 164.419 31.7068 163.474 31.1718C162.545 30.6368 161.813 29.8736 161.28 28.8823C160.746 27.8909 160.48 26.7422 160.48 25.4361C160.48 24.1301 160.746 22.9814 161.28 21.99C161.813 20.9986 162.545 20.2355 163.474 19.7004C164.419 19.1654 165.471 18.8979 166.629 18.8979C168.198 18.8979 169.425 19.4093 170.309 20.4322V14.2716H173.875ZM167.246 28.9531C168.145 28.9531 168.892 28.6384 169.486 28.0089C170.08 27.3638 170.378 26.5062 170.378 25.4361C170.378 24.3661 170.08 23.5164 169.486 22.8869C168.892 22.2418 168.145 21.9192 167.246 21.9192C166.332 21.9192 165.577 22.2418 164.983 22.8869C164.389 23.5164 164.091 24.3661 164.091 25.4361C164.091 26.5062 164.389 27.3638 164.983 28.0089C165.577 28.6384 166.332 28.9531 167.246 28.9531Z" fill="#18DBFF"/>
<path d="M78.9254 39.4933C80.4757 39.4933 81.7237 39.9491 82.6694 40.8607C83.6305 41.7723 84.1111 43.1245 84.1111 44.9173V51.9365H80.4835V45.4642C80.4835 44.4919 80.2664 43.7702 79.8323 43.2992C79.3983 42.813 78.7704 42.57 77.9488 42.57C77.0341 42.57 76.3055 42.851 75.7629 43.4132C75.2203 43.9601 74.949 44.7806 74.949 45.8745V51.9365H71.3213V35.0266H74.949V40.9519C75.4295 40.4809 76.0109 40.1239 76.693 39.8808C77.3751 39.6225 78.1193 39.4933 78.9254 39.4933Z" fill="#18DBFF"/>
<path d="M99.7907 45.8517C99.7907 45.8972 99.7674 46.2163 99.7209 46.8088H90.2564C90.427 47.5685 90.83 48.1686 91.4657 48.6092C92.1013 49.0498 92.8919 49.2701 93.8376 49.2701C94.4887 49.2701 95.0623 49.179 95.5584 48.9967C96.07 48.7991 96.5428 48.4953 96.9769 48.0851L98.907 50.1361C97.7288 51.4579 96.008 52.1188 93.7446 52.1188C92.3338 52.1188 91.0858 51.853 90.0006 51.3212C88.9154 50.7743 88.0783 50.0222 87.4892 49.065C86.9001 48.1079 86.6055 47.0215 86.6055 45.8061C86.6055 44.6058 86.8923 43.5271 87.4659 42.57C88.055 41.5976 88.8534 40.8455 89.8611 40.3138C90.8843 39.7668 92.0238 39.4933 93.2795 39.4933C94.5042 39.4933 95.6127 39.7516 96.6049 40.2682C97.597 40.7848 98.3722 41.5292 98.9303 42.5016C99.5039 43.4587 99.7907 44.5754 99.7907 45.8517ZM93.3027 42.1825C92.4811 42.1825 91.7912 42.4104 91.2331 42.8662C90.675 43.322 90.334 43.9449 90.2099 44.735H96.3723C96.2483 43.9601 95.9072 43.3448 95.3491 42.889C94.791 42.418 94.1089 42.1825 93.3027 42.1825Z" fill="#18DBFF"/>
<path d="M106.911 39.4933C108.849 39.4933 110.338 39.9491 111.376 40.8607C112.415 41.7571 112.934 43.1169 112.934 44.9401V51.9365H109.539V50.4096C108.857 51.5491 107.586 52.1188 105.725 52.1188C104.764 52.1188 103.927 51.9593 103.214 51.6403C102.516 51.3212 101.981 50.8806 101.609 50.3185C101.237 49.7563 101.051 49.1182 101.051 48.4041C101.051 47.2646 101.485 46.3682 102.354 45.7149C103.237 45.0616 104.594 44.735 106.423 44.735H109.307C109.307 43.9601 109.066 43.3676 108.586 42.9574C108.105 42.532 107.384 42.3193 106.423 42.3193C105.756 42.3193 105.098 42.4256 104.446 42.6383C103.811 42.8358 103.268 43.1093 102.819 43.4587L101.516 40.9747C102.199 40.5037 103.012 40.139 103.958 39.8808C104.919 39.6225 105.904 39.4933 106.911 39.4933ZM106.632 49.7259C107.252 49.7259 107.803 49.5892 108.283 49.3157C108.764 49.027 109.105 48.6092 109.307 48.0623V46.8088H106.818C105.33 46.8088 104.586 47.2874 104.586 48.2446C104.586 48.7004 104.764 49.065 105.121 49.3385C105.493 49.5968 105.997 49.7259 106.632 49.7259Z" fill="#18DBFF"/>
<path d="M116.217 35.0266H119.845V51.9365H116.217V35.0266Z" fill="#18DBFF"/>
<path d="M132.19 51.344C131.833 51.6023 131.391 51.7998 130.864 51.9365C130.352 52.0581 129.81 52.1188 129.236 52.1188C127.748 52.1188 126.593 51.7466 125.771 51.0021C124.965 50.2577 124.562 49.1638 124.562 47.7204V42.6839H122.632V39.9491H124.562V36.9637H128.19V39.9491H131.306V42.6839H128.19V47.6748C128.19 48.1914 128.322 48.594 128.585 48.8827C128.864 49.1562 129.252 49.2929 129.748 49.2929C130.321 49.2929 130.81 49.141 131.213 48.8371L132.19 51.344Z" fill="#18DBFF"/>
<path d="M141.83 39.4933C143.38 39.4933 144.628 39.9491 145.574 40.8607C146.535 41.7723 147.016 43.1245 147.016 44.9173V51.9365H143.388V45.4642C143.388 44.4919 143.171 43.7702 142.737 43.2992C142.303 42.813 141.675 42.57 140.853 42.57C139.939 42.57 139.21 42.851 138.667 43.4132C138.125 43.9601 137.854 44.7806 137.854 45.8745V51.9365H134.226V35.0266H137.854V40.9519C138.334 40.4809 138.915 40.1239 139.598 39.8808C140.28 39.6225 141.024 39.4933 141.83 39.4933Z" fill="#18DBFF"/>
<path d="M10.6145 37.2215C10.6145 39.6901 12.3475 42.6918 14.4853 43.926L32.467 54.3078C34.6048 55.542 36.3379 54.5414 36.3379 52.0729L36.3379 31.3095C36.3379 28.8409 34.6048 25.8392 32.467 24.605L14.4853 14.2232C12.3475 12.989 10.6145 13.9896 10.6145 16.4581L10.6145 37.2215Z" fill="#00D7FF"/>
<path opacity="0.9" d="M49.6328 23.9368C49.6328 21.4683 47.8997 18.4666 45.7619 17.2323L27.7803 6.85057C25.6425 5.6163 23.9094 6.61687 23.9094 9.08539L23.9094 29.8489C23.9094 32.3174 25.6425 35.3191 27.7803 36.5533L45.7619 46.9351C47.8997 48.1693 49.6328 47.1688 49.6328 44.7002L49.6328 23.9368Z" fill="#00D7FF"/>
<path opacity="0.7" d="M1.36507e-06 44.5627C1.52736e-06 47.0312 1.73303 50.0329 3.87084 51.2672L21.8525 61.6489C23.9903 62.8832 25.7234 61.8826 25.7234 59.4141L25.7234 38.6506C25.7234 36.1821 23.9903 33.1804 21.8525 31.9462L3.87084 21.5644C1.73303 20.3302 -1.6229e-07 21.3307 0 23.7993L1.36507e-06 44.5627Z" fill="url(#paint0_linear)"/>
<path opacity="0.7" d="M61.3752 17.6149C61.3752 15.1464 59.6422 12.1447 57.5044 10.9104L39.5227 0.528666C37.3849 -0.705595 35.6519 0.294971 35.6519 2.76349L35.6519 23.527C35.6519 25.9955 37.3849 28.9972 39.5227 30.2314L57.5044 40.6132C59.6422 41.8474 61.3752 40.8469 61.3752 38.3783L61.3752 17.6149Z" fill="url(#paint1_linear)"/>
<defs>
<linearGradient id="paint0_linear" x1="30.1011" y1="60.72" x2="14.3316" y2="8.03635" gradientUnits="userSpaceOnUse">
<stop stop-color="#232436"/>
<stop offset="1" stop-color="#00D7FF"/>
</linearGradient>
<linearGradient id="paint1_linear" x1="36.8056" y1="-0.365322" x2="37.3743" y2="69.6151" gradientUnits="userSpaceOnUse">
<stop stop-color="#232436"/>
<stop offset="1" stop-color="#00D7FF"/>
</linearGradient>
</defs>
</svg>
